<?xml version="1.0" encoding="UTF-8" standalone="no"?>
<!-- Created with Inkscape (http://www.inkscape.org/) -->

<svg
   xmlns:dc="http://purl.org/dc/elements/1.1/"
   xmlns:cc="http://creativecommons.org/ns#"
   xmlns:rdf="http://www.w3.org/1999/02/22-rdf-syntax-ns#"
   xmlns:svg="http://www.w3.org/2000/svg"
   xmlns="http://www.w3.org/2000/svg"
   xmlns:xlink="http://www.w3.org/1999/xlink"
   xmlns:sodipodi="http://sodipodi.sourceforge.net/DTD/sodipodi-0.dtd"
   xmlns:inkscape="http://www.inkscape.org/namespaces/inkscape"
   width="236"
   height="68"
   id="svg2"
   version="1.1"
   inkscape:version="0.47pre4 r22446"
   sodipodi:docname="new-logo2.svg"
   inkscape:output_extension="org.inkscape.output.svg.inkscape"
   inkscape:export-filename="/home/nick/Desktop/dev/projects/pinax07/small-networker/media/img/new-logo2.png"
   inkscape:export-xdpi="90"
   inkscape:export-ydpi="90">
  <defs
     id="defs4">
    <inkscape:perspective
       sodipodi:type="inkscape:persp3d"
       inkscape:vp_x="0 : 526.18109 : 1"
       inkscape:vp_y="0 : 1000 : 0"
       inkscape:vp_z="744.09448 : 526.18109 : 1"
       inkscape:persp3d-origin="372.04724 : 350.78739 : 1"
       id="perspective10" />
    <inkscape:perspective
       id="perspective2956"
       inkscape:persp3d-origin="0.5 : 0.33333333 : 1"
       inkscape:vp_z="1 : 0.5 : 1"
       inkscape:vp_y="0 : 1000 : 0"
       inkscape:vp_x="0 : 0.5 : 1"
       sodipodi:type="inkscape:persp3d" />
    <inkscape:perspective
       id="perspective3027"
       inkscape:persp3d-origin="0.5 : 0.33333333 : 1"
       inkscape:vp_z="1 : 0.5 : 1"
       inkscape:vp_y="0 : 1000 : 0"
       inkscape:vp_x="0 : 0.5 : 1"
       sodipodi:type="inkscape:persp3d" />
    <inkscape:perspective
       id="perspective3098"
       inkscape:persp3d-origin="0.5 : 0.33333333 : 1"
       inkscape:vp_z="1 : 0.5 : 1"
       inkscape:vp_y="0 : 1000 : 0"
       inkscape:vp_x="0 : 0.5 : 1"
       sodipodi:type="inkscape:persp3d" />
    <inkscape:perspective
       id="perspective3169"
       inkscape:persp3d-origin="0.5 : 0.33333333 : 1"
       inkscape:vp_z="1 : 0.5 : 1"
       inkscape:vp_y="0 : 1000 : 0"
       inkscape:vp_x="0 : 0.5 : 1"
       sodipodi:type="inkscape:persp3d" />
    <inkscape:perspective
       id="perspective3240"
       inkscape:persp3d-origin="0.5 : 0.33333333 : 1"
       inkscape:vp_z="1 : 0.5 : 1"
       inkscape:vp_y="0 : 1000 : 0"
       inkscape:vp_x="0 : 0.5 : 1"
       sodipodi:type="inkscape:persp3d" />
    <inkscape:perspective
       id="perspective3354"
       inkscape:persp3d-origin="0.5 : 0.33333333 : 1"
       inkscape:vp_z="1 : 0.5 : 1"
       inkscape:vp_y="0 : 1000 : 0"
       inkscape:vp_x="0 : 0.5 : 1"
       sodipodi:type="inkscape:persp3d" />
    <filter
       id="filter3162"
       height="1"
       width="1"
       y="0"
       x="0"
       inkscape:label="Film grain"
       inkscape:menu="Image effects"
       inkscape:menu-tooltip="Adds a small scale graininess"
       color-interpolation-filters="sRGB">
      <feTurbulence
         id="feTurbulence3164"
         type="fractalNoise"
         numOctaves="3"
         baseFrequency="1"
         seed="0"
         result="result0" />
      <feColorMatrix
         id="feColorMatrix3166"
         result="result4"
         values="0"
         type="saturate" />
      <feComposite
         id="feComposite3168"
         in2="result4"
         in="SourceGraphic"
         operator="arithmetic"
         k1="1.25"
         k2="0.5"
         k3="0.5"
         result="result2" />
      <feBlend
         id="feBlend3170"
         in2="SourceGraphic"
         result="result5"
         mode="normal"
         in="result2" />
      <feComposite
         id="feComposite3172"
         in2="SourceGraphic"
         in="result5"
         operator="in"
         result="result3" />
    </filter>
    <inkscape:perspective
       id="perspective3278"
       inkscape:persp3d-origin="0.5 : 0.33333333 : 1"
       inkscape:vp_z="1 : 0.5 : 1"
       inkscape:vp_y="0 : 1000 : 0"
       inkscape:vp_x="0 : 0.5 : 1"
       sodipodi:type="inkscape:persp3d" />
    <inkscape:perspective
       id="perspective3352"
       inkscape:persp3d-origin="0.5 : 0.33333333 : 1"
       inkscape:vp_z="1 : 0.5 : 1"
       inkscape:vp_y="0 : 1000 : 0"
       inkscape:vp_x="0 : 0.5 : 1"
       sodipodi:type="inkscape:persp3d" />
    <inkscape:perspective
       id="perspective3426"
       inkscape:persp3d-origin="0.5 : 0.33333333 : 1"
       inkscape:vp_z="1 : 0.5 : 1"
       inkscape:vp_y="0 : 1000 : 0"
       inkscape:vp_x="0 : 0.5 : 1"
       sodipodi:type="inkscape:persp3d" />
    <inkscape:perspective
       id="perspective3500"
       inkscape:persp3d-origin="0.5 : 0.33333333 : 1"
       inkscape:vp_z="1 : 0.5 : 1"
       inkscape:vp_y="0 : 1000 : 0"
       inkscape:vp_x="0 : 0.5 : 1"
       sodipodi:type="inkscape:persp3d" />
    <inkscape:perspective
       id="perspective3574"
       inkscape:persp3d-origin="0.5 : 0.33333333 : 1"
       inkscape:vp_z="1 : 0.5 : 1"
       inkscape:vp_y="0 : 1000 : 0"
       inkscape:vp_x="0 : 0.5 : 1"
       sodipodi:type="inkscape:persp3d" />
  </defs>
  <sodipodi:namedview
     id="base"
     pagecolor="#ffffff"
     bordercolor="#666666"
     borderopacity="1.0"
     inkscape:pageopacity="0.0"
     inkscape:pageshadow="2"
     inkscape:zoom="1"
     inkscape:cx="110.06217"
     inkscape:cy="43.687456"
     inkscape:document-units="px"
     inkscape:current-layer="layer1"
     showgrid="false"
     inkscape:window-width="2560"
     inkscape:window-height="1536"
     inkscape:window-x="0"
     inkscape:window-y="39"
     inkscape:window-maximized="0" />
  <metadata
     id="metadata7">
    <rdf:RDF>
      <cc:Work
         rdf:about="">
        <dc:format>image/svg+xml</dc:format>
        <dc:type
           rdf:resource="http://purl.org/dc/dcmitype/StillImage" />
        <dc:title></dc:title>
      </cc:Work>
    </rdf:RDF>
  </metadata>
  <g
     inkscape:label="Layer 1"
     inkscape:groupmode="layer"
     id="layer1"
     transform="translate(0,-984.36218)">
    <g
       style="font-size:24px;font-style:normal;font-variant:normal;font-weight:bold;font-stretch:normal;text-align:start;line-height:100%;writing-mode:lr-tb;text-anchor:start;fill:#999999;fill-opacity:1;stroke:none;filter:url(#filter3162);font-family:Sans;-inkscape-font-specification:Sans Bold"
       id="text4188"
       transform="translate(65.251782,-20.657448)">
      <path
         d="m 65.011803,1039.3151 c -0.789071,0 -1.38282,0.2578 -1.78125,0.7734 -0.390632,0.5078 -0.585944,1.2734 -0.585938,2.2969 -6e-6,1.0234 0.195306,1.7929 0.585938,2.3086 0.39843,0.5078 0.992179,0.7617 1.78125,0.7617 0.796865,0 1.390615,-0.2539 1.78125,-0.7617 0.398426,-0.5157 0.597645,-1.2852 0.597656,-2.3086 -1.1e-5,-1.0235 -0.19923,-1.7891 -0.597656,-2.2969 -0.390635,-0.5156 -0.984385,-0.7734 -1.78125,-0.7734 m 5.578125,-8.4024 0,3.2344 c -0.742201,-0.3516 -1.441419,-0.6094 -2.097657,-0.7734 -0.656261,-0.1719 -1.296885,-0.2578 -1.921875,-0.2579 -1.343758,10e-5 -2.390632,0.3751 -3.140625,1.125 -0.750006,0.7422 -1.187505,1.8477 -1.3125,3.3165 0.515619,-0.3829 1.074212,-0.668 1.675782,-0.8555 0.601554,-0.1953 1.257803,-0.293 1.96875,-0.293 1.789051,0 3.230456,0.5235 4.324218,1.5703 1.101548,1.0469 1.652329,2.418 1.652344,4.1133 -1.5e-5,1.875 -0.613296,3.3789 -1.839844,4.5117 -1.226574,1.125 -2.871104,1.6875 -4.933593,1.6875 -2.273444,0 -4.035161,-0.7656 -5.285157,-2.2968 -1.242189,-1.5391 -1.863282,-3.7188 -1.863281,-6.5391 -1e-6,-2.8906 0.72656,-5.1602 2.179688,-6.8086 1.460932,-1.6562 3.46093,-2.4844 6,-2.4844 0.804677,0 1.585926,0.062 2.34375,0.1875 0.757799,0.125 1.507799,0.3125 2.25,0.5625"
         style="fill:#000000"
         id="path2854" />
      <path
         d="m 75.828209,1044.8346 3.984375,0 0,-11.3086 -4.089844,0.8438 0,-3.0704 4.066406,-0.8437 4.289063,0 0,14.3789 3.984375,0 0,3.1172 -12.234375,0 0,-3.1172"
         style="fill:#000000"
         id="path2856" />
      <path
         d="m 110.31649,1035.2369 0,3.1875 c -0.89845,-0.375 -1.76564,-0.6562 -2.60156,-0.8437 -0.83595,-0.1875 -1.62501,-0.2813 -2.36719,-0.2813 -0.79688,0 -1.39063,0.1016 -1.78125,0.3047 -0.38282,0.1953 -0.57422,0.5 -0.57422,0.9141 0,0.3359 0.14453,0.5937 0.4336,0.7734 0.29686,0.1797 0.82421,0.3125 1.58203,0.3985 l 0.73828,0.1054 c 2.14843,0.2735 3.59374,0.7227 4.33594,1.3477 0.74217,0.625 1.11326,1.6055 1.11328,2.9414 -2e-5,1.3984 -0.51564,2.4492 -1.54688,3.1523 -1.03126,0.7032 -2.57032,1.0547 -4.61719,1.0547 -0.86719,0 -1.76563,-0.07 -2.69531,-0.2109 -0.92188,-0.1328 -1.87109,-0.3359 -2.847655,-0.6094 l 0,-3.1875 c 0.835935,0.4063 1.691405,0.711 2.566405,0.9141 0.88281,0.2031 1.77734,0.3047 2.6836,0.3047 0.8203,0 1.43749,-0.1133 1.85156,-0.3399 0.41405,-0.2265 0.62108,-0.5625 0.62109,-1.0078 -1e-5,-0.375 -0.14454,-0.6523 -0.43359,-0.832 -0.28126,-0.1875 -0.84767,-0.3321 -1.69922,-0.4336 l -0.73828,-0.094 c -1.86719,-0.2343 -3.17579,-0.6679 -3.92578,-1.3007 -0.750005,-0.6329 -1.125005,-1.5938 -1.125004,-2.8829 -10e-7,-1.3906 0.476561,-2.4218 1.429684,-3.0937 0.95313,-0.6719 2.41406,-1.0078 4.38282,-1.0078 0.77343,0 1.58593,0.059 2.4375,0.1758 0.85155,0.1172 1.77733,0.3008 2.77734,0.5507"
         style="fill:#000000"
         id="path2858" />
      <path
         d="m 118.94149,1031.1002 0,3.7266 4.32422,0 0,3 -4.32422,0 0,5.5664 c -1e-5,0.6094 0.12109,1.0234 0.36328,1.2422 0.24218,0.2109 0.72265,0.3164 1.44141,0.3164 l 2.15625,0 0,3 -3.59766,0 c -1.65625,0 -2.83203,-0.3438 -3.52734,-1.0313 -0.68751,-0.6953 -1.03125,-1.8711 -1.03125,-3.5273 l 0,-5.5664 -2.08594,0 0,-3 2.08594,0 0,-3.7266 4.19531,0"
         style="fill:#000000"
         id="path2860" />
      <path
         d="m 131.72665,1042.0455 c -0.87501,0 -1.53517,0.1485 -1.98047,0.4453 -0.43751,0.2969 -0.65626,0.7344 -0.65625,1.3125 -1e-5,0.5313 0.17577,0.9493 0.52734,1.254 0.35937,0.2968 0.85546,0.4453 1.48828,0.4453 0.78906,0 1.45312,-0.2813 1.99219,-0.8438 0.53905,-0.5703 0.80858,-1.2812 0.80859,-2.1328 l 0,-0.4805 -2.17968,0 m 6.41015,-1.582 0,7.4883 -4.23047,0 0,-1.9453 c -0.56251,0.7968 -1.19532,1.3789 -1.89843,1.7461 -0.70314,0.3593 -1.5586,0.539 -2.56641,0.539 -1.35938,0 -2.46485,-0.3945 -3.31641,-1.1836 -0.84375,-0.7968 -1.26562,-1.8281 -1.26562,-3.0937 0,-1.5391 0.52734,-2.668 1.58203,-3.3867 1.0625,-0.7188 2.72656,-1.0782 4.99219,-1.0782 l 2.47265,0 0,-0.3281 c -1e-5,-0.664 -0.26172,-1.1484 -0.78515,-1.4531 -0.52345,-0.3125 -1.33985,-0.4688 -2.44922,-0.4688 -0.89844,0 -1.73438,0.09 -2.50781,0.2696 -0.77344,0.1797 -1.49219,0.4492 -2.15625,0.8086 l 0,-3.1993 c 0.89843,-0.2187 1.80077,-0.3828 2.70703,-0.4921 0.90624,-0.1172 1.81249,-0.1758 2.71875,-0.1758 2.36718,0 4.0742,0.4687 5.12109,1.4062 1.05468,0.9297 1.58202,2.4453 1.58203,4.5469"
         style="fill:#000000"
         id="path2862" />
      <path
         d="m 146.64462,1031.1002 0,3.7266 4.32421,0 0,3 -4.32421,0 0,5.5664 c -1e-5,0.6094 0.12108,1.0234 0.36328,1.2422 0.24218,0.2109 0.72264,0.3164 1.4414,0.3164 l 2.15625,0 0,3 -3.59765,0 c -1.65626,0 -2.83204,-0.3438 -3.52735,-1.0313 -0.6875,-0.6953 -1.03125,-1.8711 -1.03125,-3.5273 l 0,-5.5664 -2.08593,0 0,-3 2.08593,0 0,-3.7266 4.19532,0"
         style="fill:#000000"
         id="path2864" />
      <path
         d="m 163.80087,1035.2369 0,3.1875 c -0.89845,-0.375 -1.76564,-0.6562 -2.60157,-0.8437 -0.83594,-0.1875 -1.62501,-0.2813 -2.36718,-0.2813 -0.79689,0 -1.39064,0.1016 -1.78125,0.3047 -0.38282,0.1953 -0.57423,0.5 -0.57422,0.9141 -1e-5,0.3359 0.14452,0.5937 0.43359,0.7734 0.29687,0.1797 0.82421,0.3125 1.58203,0.3985 l 0.73828,0.1054 c 2.14843,0.2735 3.59374,0.7227 4.33594,1.3477 0.74217,0.625 1.11327,1.6055 1.11328,2.9414 -1e-5,1.3984 -0.51564,2.4492 -1.54687,3.1523 -1.03126,0.7032 -2.57033,1.0547 -4.61719,1.0547 -0.86719,0 -1.76563,-0.07 -2.69531,-0.2109 -0.92188,-0.1328 -1.8711,-0.3359 -2.84766,-0.6094 l 0,-3.1875 c 0.83594,0.4063 1.6914,0.711 2.56641,0.9141 0.8828,0.2031 1.77733,0.3047 2.68359,0.3047 0.82031,0 1.43749,-0.1133 1.85156,-0.3399 0.41406,-0.2265 0.62109,-0.5625 0.6211,-1.0078 -1e-5,-0.375 -0.14454,-0.6523 -0.4336,-0.832 -0.28126,-0.1875 -0.84766,-0.3321 -1.69922,-0.4336 l -0.73828,-0.094 c -1.86719,-0.2343 -3.17578,-0.6679 -3.92578,-1.3007 -0.75,-0.6329 -1.125,-1.5938 -1.125,-2.8829 0,-1.3906 0.47656,-2.4218 1.42969,-3.0937 0.95312,-0.6719 2.41406,-1.0078 4.38281,-1.0078 0.77343,0 1.58593,0.059 2.4375,0.1758 0.85155,0.1172 1.77733,0.3008 2.77735,0.5507"
         style="fill:#000000"
         id="path2866" />
    </g>
    <image
       y="1002.5697"
       x="78.713432"
       id="image3280"
       height="32"
       width="32"
       xlink:href="file:///home/nick/Desktop/table_refresh.png" />
    <image
       y="103.26225"
       x="972.11896"
       id="image3354"
       height="32"
       width="32"
       xlink:href="file:///home/nick/Desktop/rainbow.png"
       transform="matrix(0,1,-1,0,0,0)" />
    <image
       y="1002.5697"
       x="41.824921"
       id="image3502"
       height="32"
       width="32"
       xlink:href="file:///home/nick/Desktop/control_play_blue.png" />
    <image
       y="1002.5697"
       x="7.6873226"
       id="image3576"
       height="32"
       width="32"
       xlink:href="file:///home/nick/Desktop/color_swatch.png" />
  </g>
</svg>
